<?xml version="1.0" encoding="UTF-8" standalone="no"?>
<!DOCTYPE svg PUBLIC "-//W3C//DTD SVG 1.1//EN" "http://www.w3.org/Graphics/SVG/1.1/DTD/svg11.dtd">
<svg xmlns="http://www.w3.org/2000/svg" xmlns:xlink="http://www.w3.org/1999/xlink" version="1.1" width="2338.5833pt" height="1653.5444pt" viewBox="0 0 2338.5833 1653.5444">
<g enable-background="new">
<g id="Layer-1" data-name="Layer 1">
<symbol id="font_0_25">
<path d="M .22802735 .3461914 L .07861328 .3461914 L .07861328 .068847659 L .22802735 .068847659 C .292806 .068847659 .34016929 .0797526 .3701172 .1015625 C .4000651 .1233724 .41503907 .15787761 .41503907 .20507813 C .41503907 .25097657 .39908854 .28597007 .3671875 .3100586 C .33528648 .33414714 .28889976 .3461914 .22802735 .3461914 M .2109375 .6582031 L .07861328 .6582031 L .07861328 .41308595 L .23291016 .41308595 C .2849935 .41308595 .32503257 .42399089 .35302735 .44580079 C .38102214 .4679362 .39501954 .49967448 .39501954 .5410156 C .39501954 .5810547 .38004557 .61051437 .35009767 .62939456 C .32014976 .6486003 .27376304 .6582031 .2109375 .6582031 M 0 0 L 0 .72314456 L .19580078 .72314456 C .2944336 .72314456 .36572267 .7086589 .40966798 .6796875 C .4539388 .6510417 .47607423 .6048177 .47607423 .5410156 C .47607423 .5029297 .46598307 .4703776 .44580079 .44335938 C .425944 .41634117 .39664714 .3955078 .35791017 .38085938 C .40283204 .36360679 .43717448 .33902995 .4609375 .3071289 C .48502604 .27555339 .4970703 .23811849 .4970703 .19482422 C .4970703 .1303711 .47379557 .08170573 .4272461 .048828126 C .38102214 .016276041 .31184898 0 .21972656 0 L 0 0 Z "/>
</symbol>
<symbol id="font_0_3">
<path d="M 0 0 Z "/>
</symbol>
<symbol id="font_0_2f">
<path d="M 0 0 L 0 .72314456 L .08203125 .72314456 L .08203125 .068847659 L .40478517 .068847659 L .40478517 0 L 0 0 Z "/>
</symbol>
<use xlink:href="#font_0_25" transform="matrix(393.2122,0,0,-393.2122,596.2479,856.36837)" fill="#231f20"/>
<use xlink:href="#font_0_3" transform="matrix(393.2122,0,0,-393.2122,810.08926,856.36837)" fill="#231f20"/>
<use xlink:href="#font_0_2f" transform="matrix(393.2122,0,0,-393.2122,850.6101,856.36837)" fill="#231f20"/>
<use xlink:href="#font_0_3" transform="matrix(393.2122,0,0,-393.2122,1015.34609,856.36837)" fill="#231f20"/>
<symbol id="font_1_32">
<path d="M .38183595 .080078128 C .42089845 .080078128 .4580078 .087402347 .49316407 .10205078 C .5286458 .11702474 .5605469 .13867188 .5888672 .16699219 C .616862 .19498699 .6381836 .22672527 .65283206 .26220704 C .66748049 .2976888 .6748047 .33528648 .6748047 .375 C .6748047 .41503907 .6673177 .453125 .65234377 .4892578 C .6376953 .5253906 .61653646 .5572917 .5888672 .58496096 C .5608724 .61295577 .5291341 .63427737 .49365235 .6489258 C .4584961 .6635742 .42122398 .67089846 .38183595 .67089846 C .3421224 .67089846 .30452476 .6635742 .26904298 .6489258 C .2335612 .63427737 .20214844 .61295577 .17480469 .58496096 C .14680989 .5566406 .12548828 .52457687 .110839847 .48876954 C .096191409 .45296226 .08886719 .41503907 .08886719 .375 C .08886719 .33528648 .09602865 .29785157 .11035156 .2626953 C .125 .22753906 .14648438 .19563802 .17480469 .16699219 C .20345052 .13834636 .2351888 .11669922 .27001954 .10205078 C .30517579 .087402347 .3424479 .080078128 .38183595 .080078128 M .7636719 .375 C .7636719 .32389323 .75423178 .27571617 .73535159 .23046875 C .7164714 .18522136 .68896487 .14501953 .65283206 .10986328 C .6166992 .07470703 .57503256 .047526044 .52783206 .028320313 C .48095704 .0094401049 .43229167 0 .38183595 0 C .33138023 0 .28271485 .0094401049 .23583985 .028320313 C .18929036 .047526044 .14794922 .07470703 .111816409 .10986328 C .07535807 .14534505 .047526044 .18570964 .028320313 .23095703 C .0094401049 .27620445 0 .32421876 0 .375 C 0 .42610679 .0094401049 .47428385 .028320313 .51953127 C .047526044 .5651042 .07535807 .60563156 .111816409 .6411133 C .1476237 .67594406 .18896485 .7027995 .23583985 .7216797 C .28271485 .7405599 .33138023 .75 .38183595 .75 C .4326172 .75 .4814453 .7405599 .5283203 .7216797 C .5755208 .7027995 .6170247 .67594406 .65283206 .6411133 C .68896487 .60595706 .7164714 .56559249 .73535159 .52001956 C .75423178 .47477214 .7636719 .42643229 .7636719 .375 Z "/>
</symbol>
<symbol id="font_1_3">
<path d="M 0 0 Z "/>
</symbol>
<symbol id="font_1_30">
<path d="M .39501954 0 L .17285156 .5136719 L .08300781 .027832032 L 0 .027832032 L .14501953 .7709961 L .39501954 .1796875 L .64501956 .7709961 L .79003909 .027832032 L .70703127 .027832032 L .61621096 .5136719 L .39501954 0 Z "/>
</symbol>
<use xlink:href="#font_1_32" transform="matrix(393.2122,0,0,-393.2122,1021.72506,863.85629)" fill="#231f20"/>
<use xlink:href="#font_1_3" transform="matrix(393.2122,0,0,-393.2122,1342.8919,856.36837)" fill="#231f20"/>
<use xlink:href="#font_1_32" transform="matrix(393.2122,0,0,-393.2122,1199.8502,863.85629)" fill="#231f20"/>
<use xlink:href="#font_1_3" transform="matrix(393.2122,0,0,-393.2122,1521.0169,856.36837)" fill="#231f20"/>
<use xlink:href="#font_1_30" transform="matrix(393.2122,0,0,-393.2122,1532.391,867.31228)" fill="#231f20"/>
<symbol id="font_2_26">
<path d="M .5488281 .19091797 L .5307617 .18017578 L .53466799 .16503906 C .53466799 .15657552 .5263672 .15234375 .5097656 .15234375 L .5019531 .13134766 L .46875 .109375 C .4625651 .0999349 .45621745 .091796878 .44970704 .08496094 C .4399414 .08496094 .42985026 .08089193 .4194336 .072753909 C .40934245 .064941409 .4025065 .059733076 .39892579 .057128908 C .39567057 .05485026 .3919271 .052571615 .3876953 .05029297 C .38346354 .048339845 .379069 .04671224 .37451173 .045410158 C .37027995 .044108076 .36409507 .041178388 .35595704 .036621095 C .34814454 .032389326 .34326173 .030110678 .3413086 .029785157 C .339681 .029459635 .3372396 .029296875 .33398438 .029296875 L .32763673 .029296875 C .31526695 .029296875 .2993164 .021647135 .27978517 .0063476564 L .26464845 .009277344 L .2524414 .0053710939 C .24397786 .0024414063 .23811849 .0009765625 .23486328 .0009765625 C .23063152 .0009765625 .2257487 .0017903646 .22021485 .0034179688 C .21500652 .0047200524 .21158855 .0053710939 .20996094 .0053710939 L .20800781 .0053710939 C .20345052 .0017903646 .19938152 0 .19580078 0 C .19254558 0 .18896485 .0021158856 .1850586 .0063476564 L .16796875 .008300781 C .16503906 .008300781 .1616211 .0073242189 .15771485 .0053710939 L .14404297 .010253906 L .13476563 .0063476564 L .114746097 .015136719 L .10595703 .021972657 C .10335287 .023925782 .095703128 .027018229 .08300781 .03125 L .07763672 .043945314 C .0616862 .048177083 .053059896 .05045573 .051757814 .05078125 C .05045573 .051432294 .048990888 .0555013 .04736328 .06298828 C .0460612 .07047526 .04345703 .075520839 .03955078 .078125 C .03597005 .080729167 .033040365 .08382162 .030761719 .087402347 C .028483073 .09098307 .026204428 .09586588 .023925782 .10205078 C .021972657 .10823568 .01953125 .11376953 .016601563 .118652347 C .012369792 .12516277 .009114583 .13151042 .0068359377 .13769531 C .0048828127 .14420574 .00390625 .15039063 .00390625 .15625 L .00390625 .15917969 L .005859375 .1899414 C .001953125 .19710286 0 .20410156 0 .2109375 L .005859375 .22802735 L .005859375 .24511719 L .01171875 .24804688 L .013671875 .26416017 L .025878907 .3100586 L .03466797 .33203126 L .0390625 .3330078 L .041015626 .34814454 C .044270833 .3491211 .04654948 .35481773 .047851564 .36523438 C .049153646 .37597657 .053059896 .38492839 .059570314 .39208985 C .06640625 .3992513 .06982422 .4049479 .06982422 .4091797 C .06982422 .41438804 .06852213 .41878257 .06591797 .42236329 L .07763672 .42626954 C .08414713 .43570964 .09049479 .44270835 .09667969 .44726563 L .10205078 .46826173 L .114746097 .47607423 L .118652347 .4921875 C .13264974 .4951172 .14225261 .5008138 .14746094 .50927737 C .15266927 .5180664 .15917969 .5232747 .16699219 .52490237 L .17333985 .53125 C .17496746 .5332031 .18180339 .5361328 .19384766 .54003909 L .19677735 .53808596 L .20800781 .5493164 L .21484375 .5410156 L .22460938 .5390625 C .23470052 .54296877 .2454427 .5449219 .25683595 .5449219 L .27685548 .5415039 C .27783204 .5411784 .28027345 .54003909 .2841797 .53808596 L .3154297 .5263672 L .3857422 .4819336 C .38867188 .472819 .39339195 .4658203 .39990235 .4609375 L .40576173 .44189454 C .41194663 .42692057 .41503907 .41666667 .41503907 .4111328 L .4140625 .38916017 C .4124349 .38232423 .4116211 .37532554 .4116211 .36816407 C .4116211 .36751304 .41210938 .36686198 .41308595 .36621095 C .41308595 .3642578 .41080729 .3606771 .40625 .35546876 C .40201823 .35058595 .39892579 .34684245 .39697267 .34423829 L .37890626 .34033204 L .3725586 .34521485 C .36995445 .34716798 .3683268 .34879557 .36767579 .35009767 L .3647461 .35546876 C .363444 .35709635 .3623047 .35986329 .36132813 .36376954 C .3606771 .36767579 .35986329 .37141929 .35888673 .375 L .35888673 .39013673 L .35595704 .40722657 L .35595704 .43115235 L .35986329 .44921876 C .3474935 .47102867 .33170573 .48421226 .3125 .48876954 C .30859376 .4897461 .30664063 .4908854 .30664063 .4921875 L .30664063 .49316407 C .3063151 .49446617 .30485026 .49576823 .3022461 .4970703 C .29964195 .4983724 .29785157 .5 .296875 .5019531 L .2758789 .5019531 L .26171876 .5131836 C .25195313 .5131836 .24707031 .51123049 .24707031 .5073242 L .23779297 .5131836 L .22802735 .50634768 L .21484375 .5083008 L .20507813 .50097659 C .20247396 .5016276 .19840496 .5019531 .1928711 .5019531 C .18798828 .5019531 .1829427 .50097659 .17773438 .49902345 L .1616211 .47607423 L .13476563 .44921876 L .11376953 .4169922 L .10498047 .41308595 L .09667969 .38720704 L .08300781 .37597657 L .08300781 .3623047 L .06591797 .3330078 L .057617189 .30029298 L .05078125 .30029298 L .0546875 .28125 L .044921876 .26220704 L .047851564 .2553711 L .041992189 .2553711 L .041992189 .24023438 L .038085939 .23730469 L .0390625 .19824219 L .03466797 .16894531 C .04248047 .15755208 .046223958 .14892578 .045898439 .1430664 L .0546875 .13623047 L .0546875 .12402344 L .06201172 .11328125 L .057617189 .10205078 L .076660159 .08203125 L .07763672 .072265628 L .10888672 .060058595 L .10595703 .04736328 L .14697266 .043945314 L .15966797 .03125 L .18066406 .038085939 L .19189453 .024902344 L .21484375 .033203126 C .22037761 .037760419 .22477214 .040039064 .22802735 .040039064 C .22998047 .040039064 .23095703 .0390625 .23095703 .037109376 L .24560547 .038085939 L .25390626 .03125 L .27001954 .037109376 L .27490235 .037109376 C .2849935 .037109376 .2919922 .03955078 .29589845 .044433595 C .30013023 .049641927 .3071289 .052246095 .31689454 .052246095 C .31982423 .052246095 .32454429 .05159505 .3310547 .05029297 C .33268229 .057454427 .339681 .061360677 .35205079 .06201172 C .3569336 .067871097 .36523438 .07259115 .37695313 .076171878 C .38183595 .076171878 .3914388 .079427089 .40576173 .0859375 L .41308595 .09814453 C .41666667 .099121097 .425944 .1031901 .44091798 .11035156 L .45166017 .12402344 L .46875 .13134766 L .52197268 .18701172 L .54003909 .19726563 L .5488281 .19091797 Z "/>
</symbol>
<symbol id="font_2_2f">
<path d="M .51904299 .08691406 L .5283203 .08691406 C .5361328 .08691406 .54003909 .08496094 .54003909 .08105469 C .54003909 .07421875 .5336914 .07080078 .5209961 .07080078 C .52034506 .07080078 .5182292 .069498699 .51464846 .06689453 C .5110677 .06429037 .50683596 .06266276 .5019531 .06201172 L .4663086 .057128908 L .44335938 .057128908 L .43359376 .05078125 C .43001304 .048177083 .42610679 .04671224 .421875 .04638672 L .40527345 .044921876 L .39697267 .037109376 L .35009767 .03515625 L .3232422 .021972657 C .30924479 .020996094 .30029298 .017415366 .29638673 .011230469 C .2879232 .011230469 .27913413 .012858073 .27001954 .016113282 L .24902344 .0087890629 L .22509766 .0078125 L .203125 0 L .15039063 0 L .1171875 .0087890629 L .096191409 .0068359377 L .088378909 .014160156 L .06933594 .016113282 L .0390625 .046875 C .026041666 .060872396 .017089844 .08089193 .012207031 .106933597 C .010253906 .11702474 .006184896 .12939453 0 .14404297 L .008300781 .17822266 L .0043945314 .21289063 L .011230469 .21777344 L .012207031 .26611329 L .017578125 .28027345 C .019205729 .28483073 .020996094 .2957357 .022949219 .31298829 L .030273438 .3178711 L .023925782 .32910157 L .023925782 .38623048 C .03173828 .3992513 .03548177 .40852867 .03515625 .4140625 L .034179689 .4482422 L .05029297 .46777345 L .03515625 .47802735 L .041015626 .49609376 L .052246095 .5019531 L .04638672 .5180664 L .05908203 .5229492 L .06201172 .53222659 L .06933594 .5341797 L .080078128 .53222659 L .092285159 .50390627 C .08154297 .49544273 .076171878 .48876954 .076171878 .48388673 C .076171878 .4832357 .07584635 .48258464 .07519531 .4819336 C .07519531 .4806315 .07698568 .47932945 .080566409 .47802735 C .08414713 .47672526 .08626302 .47509767 .08691406 .47314454 L .076171878 .44091798 L .076171878 .4038086 L .06591797 .37109376 L .06298828 .3388672 L .04736328 .26904298 L .052246095 .26220704 L .048339845 .2529297 C .04703776 .24967449 .045247396 .24169922 .04296875 .2290039 C .041015626 .21663411 .040039064 .20963542 .040039064 .20800781 L .04296875 .17822266 L .0390625 .16699219 L .04736328 .12207031 L .04638672 .11816406 L .06201172 .08203125 L .06201172 .07080078 L .11230469 .0390625 L .15136719 .03515625 L .15136719 .032226564 L .18798828 .034179689 L .22607422 .041015626 L .25439454 .041015626 L .25439454 .037109376 L .26513673 .046875 L .31835938 .047851564 L .3310547 .056152345 L .36816407 .05810547 L .3852539 .06298828 L .4482422 .06689453 L .47509767 .07519531 C .480306 .07389323 .48665367 .07324219 .49414063 .07324219 C .5016276 .07324219 .5053711 .075520839 .5053711 .080078128 L .5053711 .08203125 C .51123049 .08203125 .5157878 .08365885 .51904299 .08691406 Z "/>
</symbol>
<symbol id="font_2_32">
<path d="M .6010742 .27685548 L .5917969 .2548828 L .5888672 .22460938 L .5800781 .21582031 L .5698242 .18359375 C .56884768 .17936199 .5678711 .17626953 .56689456 .1743164 C .56591799 .17236328 .56380209 .17073567 .5605469 .1694336 L .5498047 .16503906 L .49072267 .11767578 L .47705079 .110839847 C .472819 .10888672 .46614585 .103515628 .45703126 .09472656 L .45703126 .10058594 L .41601563 .068847659 L .39794923 .061035158 L .35498048 .037597658 C .34879557 .040527345 .34277345 .041992189 .33691407 .041992189 C .33235679 .041992189 .32877604 .040364583 .32617188 .037109376 C .32389323 .033854169 .3214518 .03173828 .31884767 .030761719 L .3100586 .032714845 L .2939453 .017578125 L .28564454 .021972657 L .28173829 .016601563 L .26464845 .016601563 L .25585938 .0078125 L .22607422 .009765625 L .17773438 .0009765625 C .17578125 .0016276041 .17285156 .001953125 .16894531 .001953125 L .1538086 0 L .13671875 .0029296876 L .1328125 .0068359377 L .09082031 .013671875 L .07080078 .023925782 L .06201172 .023925782 L .06201172 .04296875 L .047851564 .037597658 L .041015626 .04736328 C .038085939 .05094401 .03483073 .053710939 .03125 .055664064 L .015625 .06298828 C .010416667 .07763672 .007486979 .094563808 .0068359377 .11376953 L .001953125 .12060547 L 0 .16064453 L .013671875 .20361328 L .01171875 .22460938 L .020996094 .23291016 L .013671875 .25 L .030761719 .26367188 L .030761719 .27783204 L .036621095 .29101563 L .036621095 .3017578 L .043945314 .31396485 L .041015626 .3178711 L .045898439 .32080079 L .06689453 .36865235 L .10595703 .43066407 C .111816409 .4326172 .11604818 .43603517 .118652347 .44091798 C .12125651 .4461263 .1282552 .45279948 .13964844 .4609375 L .13769531 .46972657 L .14990235 .46972657 L .14697266 .47558595 C .15445964 .48339845 .16471355 .48942057 .17773438 .49365235 L .1850586 .5019531 L .18408203 .5019531 C .18408203 .5022786 .19042969 .5032552 .203125 .5048828 L .24902344 .5107422 L .27783204 .50683596 L .2998047 .5078125 L .3256836 .5078125 C .33251954 .50651046 .3372396 .5058594 .33984376 .5058594 C .34895835 .5058594 .35595704 .50878909 .36083985 .51464846 C .36409507 .51139327 .36783854 .5097656 .3720703 .5097656 C .37402345 .5097656 .37565104 .5100911 .37695313 .5107422 C .37727867 .50423178 .38053385 .50097659 .38671876 .50097659 C .3893229 .49804688 .39664714 .495931 .4086914 .4946289 L .41601563 .48779298 L .43066407 .48583985 L .44970704 .48583985 L .47705079 .4716797 L .47070313 .4716797 L .4892578 .4584961 C .49153648 .4568685 .49479167 .4523112 .49902345 .44482423 L .5136719 .43798829 L .5209961 .42578126 L .53808596 .4189453 L .57128909 .36376954 C .5735677 .3601888 .57747396 .35091148 .5830078 .3359375 L .5961914 .30029298 C .5994466 .29182945 .6010742 .28629557 .6010742 .2836914 L .6010742 .27685548 M .56884768 .30273438 L .5600586 .3256836 L .56103518 .3330078 C .56103518 .33626304 .5602214 .33984376 .55859377 .34375 C .5569661 .34765626 .5501302 .35335288 .53808596 .36083985 L .5307617 .3798828 L .52490237 .3828125 L .52197268 .39404298 L .49365235 .42382813 L .46875 .44482423 L .4609375 .44189454 L .4248047 .46484376 C .42154948 .46679688 .41455079 .46858726 .4038086 .47021485 C .39339195 .47184245 .38541667 .47444663 .3798828 .47802735 C .3798828 .4773763 .37890626 .47705079 .37695313 .47705079 C .37565104 .47705079 .37060548 .4777018 .3618164 .4790039 L .3569336 .47558595 L .34179688 .48095704 L .33203126 .47558595 C .3232422 .47851563 .31722007 .47998048 .31396485 .47998048 C .31201173 .47998048 .30908204 .47916667 .30517579 .47753907 C .30159507 .47623698 .29882813 .47558595 .296875 .47558595 C .29361979 .47558595 .29134117 .47639976 .29003907 .47802735 C .28320313 .47444663 .27766929 .47021485 .2734375 .46533204 C .26953126 .46077476 .26302085 .45654298 .25390626 .45263673 L .2397461 .4560547 L .22607422 .44677735 L .20996094 .44873048 L .20410156 .44628907 C .20214844 .4453125 .20035808 .4440104 .19873047 .4423828 C .19710286 .44108073 .19498699 .43945313 .19238281 .4375 C .19010417 .43554688 .18717449 .43326823 .18359375 .43066407 C .18033855 .4283854 .17659505 .42578126 .17236328 .42285157 C .16845703 .41992188 .1640625 .4169922 .15917969 .4140625 C .15690105 .4124349 .15250652 .40576173 .1459961 .39404298 L .14697266 .3798828 L .12890625 .3720703 C .12695313 .37109376 .12288412 .36702476 .11669922 .35986329 C .111816409 .34879557 .10579427 .33984376 .09863281 .3330078 L .09863281 .32080079 C .09082031 .31754557 .08626302 .31347657 .08496094 .30859376 L .075683597 .27978517 L .05908203 .26904298 C .056803388 .22835286 .053222658 .20475261 .048339845 .19824219 C .04378255 .19173177 .040527345 .18570964 .03857422 .18017578 C .036946615 .17496746 .03564453 .16910808 .03466797 .16259766 C .034016927 .15641277 .03173828 .14746094 .027832032 .13574219 L .033691408 .12402344 L .036621095 .10595703 L .045898439 .09375 C .04720052 .091796878 .048177083 .08935547 .048828126 .08642578 L .05078125 .07470703 C .06347656 .060384115 .07926432 .05029297 .09814453 .044433595 C .11702474 .03857422 .12792969 .03597005 .13085938 .036621095 L .16308594 .044921876 L .16992188 .037597658 L .18603516 .037597658 L .18603516 .030761719 L .20166016 .030761719 L .20605469 .04296875 L .22167969 .044921876 L .26171876 .040039064 C .26529948 .04654948 .2693685 .049804689 .27392579 .049804689 L .27783204 .048828126 C .29248048 .05826823 .30322267 .06298828 .3100586 .06298828 L .31396485 .06298828 L .33398438 .075683597 C .33658854 .07698568 .34358726 .07796224 .35498048 .07861328 L .36767579 .08984375 C .3917643 .09049479 .40559898 .0921224 .4091797 .09472656 C .4127604 .09733073 .41585288 .100097659 .41845704 .103027347 C .42138673 .10595703 .42789714 .108561199 .43798829 .110839847 L .44482423 .12988281 L .4477539 .12890625 L .44970704 .13574219 C .45751954 .13802083 .4638672 .14241536 .46875 .14892578 L .47802735 .1459961 L .48291017 .15576172 L .49902345 .16796875 L .5258789 .1977539 L .5419922 .20361328 L .5498047 .22070313 L .5629883 .22998047 L .5600586 .24804688 L .56689456 .26367188 L .5629883 .29296876 L .56884768 .30273438 Z "/>
</symbol>
<symbol id="font_2_37">
<path d="M .6376953 .5097656 L .6328125 .49902345 L .6201172 .4970703 L .58984377 .4970703 L .5756836 .49365235 L .56396487 .4970703 L .5019531 .49169923 L .48095704 .4970703 C .46370445 .49023438 .45133464 .4868164 .44384767 .4868164 L .4140625 .4868164 L .3959961 .49365235 C .3959961 .49039714 .3935547 .4881185 .38867188 .4868164 C .37955729 .4868164 .37060548 .4855143 .3618164 .48291017 C .35335288 .480306 .3453776 .4790039 .33789063 .4790039 L .3178711 .4868164 L .30078126 .4790039 L .29882813 .47265626 L .29003907 .47265626 L .28466798 .46289063 L .28076173 .39794923 L .28466798 .38867188 L .28271485 .3779297 L .2836914 .3491211 L .28076173 .31982423 L .28076173 .31103517 C .28076173 .30680339 .27978517 .3035482 .27783204 .30126954 C .27620445 .2993164 .27490235 .29410807 .27392579 .28564454 L .28173829 .27294923 L .27978517 .25683595 L .27294923 .25195313 C .27294923 .24804688 .27490235 .2430013 .2788086 .2368164 L .27294923 .22705078 L .27294923 .21582031 L .26513673 .20410156 L .27001954 .17578125 L .2680664 .13476563 L .2607422 .10888672 C .26204429 .106282558 .2626953 .10432943 .2626953 .103027347 C .2626953 .10107422 .26204429 .09879557 .2607422 .096191409 C .25976563 .09391276 .25960288 .09147135 .2602539 .08886719 C .26123048 .08658854 .26171876 .084635417 .26171876 .08300781 C .26171876 .08105469 .26009117 .076660159 .25683595 .06982422 C .25358073 .063313808 .2524414 .059244794 .25341798 .057617189 C .2537435 .056966146 .2548828 .051757814 .25683595 .041992189 C .25358073 .033203126 .25195313 .026529948 .25195313 .021972657 C .25195313 .017415366 .25260417 .0100911459 .25390626 0 C .25 0 .24641927 .00048828127 .24316406 .0014648438 C .24023438 .0024414063 .23844402 .0029296876 .23779297 .0029296876 C .23258464 .0029296876 .22998047 .012532552 .22998047 .03173828 L .2319336 .046875 C .2319336 .052408857 .23128255 .060384115 .22998047 .07080078 C .22867839 .081217449 .22802735 .08886719 .22802735 .09375 L .23388672 .1640625 C .22867839 .17285156 .22607422 .17773438 .22607422 .17871094 C .22607422 .18229167 .22770183 .18538411 .23095703 .18798828 C .22835286 .19124349 .22705078 .19417317 .22705078 .19677735 C .22705078 .19873047 .2290039 .2006836 .23291016 .20263672 C .23030599 .20914714 .2290039 .21354167 .2290039 .21582031 C .2290039 .21940105 .23014324 .2241211 .23242188 .22998047 C .23470052 .23616536 .23583985 .2397461 .23583985 .24072266 L .23486328 .25683595 C .23486328 .25878907 .23795574 .26611329 .24414063 .2788086 C .23860677 .2788086 .23583985 .28320313 .23583985 .2919922 C .23583985 .30729167 .23779297 .31591798 .24169922 .3178711 L .24169922 .35888673 L .23583985 .37890626 L .24169922 .42089845 L .23583985 .4506836 L .24169922 .4741211 C .23909505 .4832357 .23453777 .48779298 .22802735 .48779298 C .22444661 .48779298 .22135417 .48616538 .21875 .48291017 L .20458985 .4814453 C .19938152 .48111979 .19417317 .47932945 .18896485 .47607423 L .17675781 .47705079 L .16503906 .47607423 L .16503906 .47265626 L .15673828 .47265626 C .14567058 .47265626 .13671875 .47477214 .12988281 .4790039 L .12792969 .47265626 L .106933597 .4790039 L .048828126 .48095704 L .025878907 .4741211 C .008626302 .48909507 0 .49902345 0 .50390627 C 0 .5052083 .0013020834 .5105794 .00390625 .52001956 L .020019532 .52001956 L .09082031 .5058594 L .107910159 .51171877 L .15478516 .5097656 L .19873047 .5058594 L .22802735 .51708987 L .23583985 .51708987 L .24414063 .54003909 L .2578125 .53564456 L .2607422 .5258789 L .26708985 .5288086 C .2722982 .52197268 .2799479 .51627609 .29003907 .51171877 L .30615235 .51708987 C .31689454 .51708987 .32617188 .5126953 .33398438 .50390627 L .33984376 .51171877 L .37695313 .51904299 L .39990235 .51708987 C .40641276 .51416018 .4124349 .5126953 .41796876 .5126953 L .42285157 .5126953 C .42903648 .51497396 .43408204 .5161133 .43798829 .5161133 L .45214845 .5136719 C .45507813 .5136719 .45703126 .5148112 .4580078 .51708987 L .47802735 .52001956 L .50097659 .51464846 C .50423178 .51139327 .50878909 .5107422 .51464846 .5126953 C .5208333 .51497396 .52490237 .5161133 .52685549 .5161133 L .5449219 .5126953 L .59472659 .5136719 L .6166992 .5097656 L .6376953 .5097656 Z "/>
</symbol>
<symbol id="font_2_2b">
<path d="M .6533203 .39404298 L .6333008 .37597657 L .6171875 .3779297 L .60302737 .3671875 L .59228518 .37402345 L .55322268 .36279298 L .54589846 .3491211 L .53027346 .3618164 L .5073242 .3310547 L .5151367 .3310547 C .51416018 .31998698 .5097656 .3100586 .5019531 .30126954 L .50390627 .30126954 C .50683596 .30126954 .5083008 .29882813 .5083008 .2939453 C .5083008 .27669273 .5061849 .26236979 .5019531 .25097657 L .5073242 .24609375 C .5073242 .24055989 .5061849 .23649089 .50390627 .23388672 C .5019531 .23128255 .50097659 .22867839 .50097659 .22607422 C .50097659 .22216797 .5022786 .21582031 .5048828 .20703125 L .49902345 .20214844 L .5 .1538086 L .49121095 .100097659 L .49316407 .100097659 L .4892578 .083984378 L .49316407 .07714844 L .49121095 .061035158 L .4946289 .052734376 C .49690757 .046223958 .49804688 .039713544 .49804688 .033203126 C .49804688 .029947916 .49576823 .026529948 .49121095 .022949219 L .4921875 .018066407 C .4921875 .011230469 .48909507 .0052083337 .48291017 0 L .4819336 .010253906 C .472819 .024251303 .46826173 .033854169 .46826173 .0390625 L .46826173 .07714844 L .4638672 .08984375 L .4711914 .096191409 L .4638672 .100097659 L .4609375 .11621094 L .4609375 .13085938 L .4638672 .13183594 L .4609375 .1430664 L .4638672 .1821289 L .46289063 .21826172 L .47021485 .24414063 L .4638672 .2529297 L .46826173 .26220704 L .46826173 .32421876 L .4711914 .35595704 L .45214845 .3491211 L .44726563 .35498048 L .43896485 .3491211 L .42919923 .35302735 C .4181315 .3474935 .4091797 .34521485 .40234376 .3461914 C .3955078 .3474935 .39078776 .34814454 .3881836 .34814454 C .38330079 .34814454 .37890626 .3474935 .375 .3461914 L .3359375 .3330078 L .29003907 .3388672 L .28515626 .33691407 C .2763672 .34016929 .269694 .34179688 .26513673 .34179688 C .261556 .34179688 .25585938 .34033204 .24804688 .33740235 C .24055989 .33447267 .23551433 .3330078 .23291016 .3330078 L .21728516 .33691407 L .2109375 .3232422 L .19384766 .3359375 L .16894531 .33007813 L .15917969 .3359375 L .1508789 .328125 L .13916016 .32958985 C .1352539 .32991538 .12923177 .33235679 .12109375 .33691407 L .12011719 .33007813 L .11230469 .3330078 C .099609378 .3330078 .088541667 .33154298 .07910156 .32861329 C .06966146 .3256836 .064941409 .31575523 .064941409 .29882813 L .064941409 .26220704 L .061035158 .23583985 L .064941409 .21826172 L .056152345 .19921875 L .064941409 .1821289 L .05810547 .1381836 L .06298828 .12207031 L .061035158 .096191409 L .067871097 .07910156 L .064941409 .07080078 L .06689453 .05419922 L .06298828 .052246095 C .05159505 .0538737 .045572919 .060058595 .044921876 .07080078 L .04296875 .11816406 C .029622397 .13378906 .022949219 .14339192 .022949219 .14697266 C .022949219 .15445964 .027994791 .15983074 .038085939 .16308594 L .03125 .16992188 L .032226564 .18603516 L .028320313 .19824219 L .022949219 .27783204 L .022949219 .30322267 L .019042969 .31689454 L .001953125 .32714845 L 0 .35595704 L .022949219 .37109376 C .029785157 .39095054 .033203126 .4075521 .033203126 .42089845 C .033203126 .42447917 .032552083 .42952476 .03125 .43603517 L .040039064 .4321289 L .03515625 .44189454 L .032226564 .4790039 L .038085939 .5019531 L .032226564 .5410156 L .032226564 .5629883 L .037109376 .5888672 L .05517578 .60009768 C .06233724 .5935872 .06998698 .5891927 .078125 .58691409 L .07910156 .5708008 L .08691406 .56103518 C .08235677 .5447591 .080078128 .53548178 .080078128 .5332031 C .080078128 .5279948 .08170573 .52457687 .08496094 .5229492 C .08561198 .5209961 .0859375 .5177409 .0859375 .5131836 C .0859375 .5024414 .08235677 .47672526 .07519531 .43603517 L .08203125 .41992188 L .07519531 .41015626 C .07486979 .40039063 .07324219 .38736979 .0703125 .37109376 L .091308597 .37109376 L .10205078 .3671875 L .12792969 .37109376 L .14404297 .36914063 L .16601563 .37109376 L .1850586 .3618164 L .1850586 .3642578 C .1850586 .3688151 .18701172 .37109376 .19091797 .37109376 C .19352214 .37109376 .19661458 .36979167 .20019531 .3671875 L .21728516 .3671875 L .25585938 .36914063 C .26302085 .36914063 .2680664 .3684896 .2709961 .3671875 L .2783203 .37597657 L .28515626 .37109376 C .30013023 .36946617 .30940757 .36816407 .31298829 .3671875 C .31689454 .36914063 .31998698 .3701172 .32226563 .3701172 L .32617188 .36914063 L .4350586 .38085938 L .4790039 .3779297 L .47021485 .39208985 L .47509767 .39794923 L .47021485 .41992188 L .47509767 .43603517 L .46826173 .4790039 L .47509767 .4951172 L .45507813 .5541992 C .45377604 .55810549 .453125 .56103518 .453125 .5629883 C .453125 .5678711 .45524089 .5719401 .45947267 .5751953 C .46370445 .5784505 .46663413 .5800781 .46826173 .5800781 L .47509767 .5800781 L .4711914 .59814456 L .48632813 .59814456 L .49121095 .58691409 L .50927737 .5908203 L .50927737 .5751953 L .5209961 .57910159 L .5209961 .56103518 L .51416018 .54785159 L .5229492 .52197268 L .5229492 .50927737 L .5283203 .4951172 L .5209961 .47509767 L .5229492 .45898438 L .51708987 .37890626 L .5410156 .3828125 L .5629883 .38427735 L .60009768 .39404298 L .6171875 .39208985 L .6298828 .39404298 L .6533203 .39404298 M .67822268 .39404298 L .6621094 .3828125 C .65755209 .38378907 .65527346 .38623048 .65527346 .39013673 C .65527346 .39534507 .6591797 .39794923 .6669922 .39794923 C .671875 .39794923 .67561849 .39664714 .67822268 .39404298 Z "/>
</symbol>
<symbol id="font_2_2c">
<path d="M .078125 .51708987 L .07421875 .5161133 L .068359378 .50097659 L .07421875 .49804688 L .07128906 .47607423 C .06933594 .47314454 .068359378 .4698893 .068359378 .4663086 L .07128906 .453125 L .07128906 .44091798 L .06640625 .43603517 L .07128906 .43017579 L .063964847 .41210938 L .06640625 .39501954 L .05029297 .36328126 L .05419922 .36132813 C .052897138 .3580729 .052246095 .3540039 .052246095 .3491211 L .05419922 .33398438 L .05419922 .33203126 L .04296875 .32714845 L .05419922 .3022461 L .04736328 .3022461 L .05029297 .29296876 L .04296875 .28027345 L .052246095 .2631836 L .05029297 .25634767 L .045410158 .25634767 C .04313151 .25634767 .041992189 .25423179 .041992189 .25 C .041992189 .24251302 .0460612 .23616536 .05419922 .23095703 C .0476888 .22802735 .044108076 .21875 .04345703 .203125 L .041992189 .19238281 L .04736328 .17626953 L .041992189 .1640625 L .04296875 .12695313 L .038085939 .10107422 L .048339845 .096191409 C .04703776 .08935547 .045410158 .0843099 .04345703 .08105469 C .041829427 .078125 .041015626 .07519531 .041015626 .072265628 C .041015626 .06673177 .044433595 .059733076 .05126953 .05126953 L .044433595 .049316408 L .057128908 .036132814 L .052246095 .028320313 L .06640625 .023925782 C .064453128 .014485677 .060709638 .0065104167 .05517578 0 C .049316408 .001953125 .04638672 .0063476564 .04638672 .013183594 L .033203126 .030273438 L .025390625 .032226564 L .029296875 .049316408 L .013183594 .06738281 L .020019532 .076171878 L .010253906 .091308597 L .013183594 .11230469 C .011881511 .115885417 .010579427 .119140628 .009277344 .12207031 L .0053710939 .1303711 L .013183594 .14208985 L .009277344 .15527344 L .013183594 .1640625 L 0 .1743164 L .010253906 .18896485 L .009277344 .25634767 L .016113282 .30810548 L .013183594 .359375 L .018066407 .37304688 L .013183594 .37695313 L .016113282 .38916017 L .016113282 .40722657 L .020019532 .4140625 L .013183594 .41601563 L .018066407 .43896485 C .010579427 .43896485 .0060221354 .44140626 .0043945314 .44628907 L .018066407 .44628907 L .020019532 .46240235 L .013183594 .46435548 L .018066407 .47607423 C .02360026 .4806315 .026367188 .48535157 .026367188 .49023438 C .026367188 .4951172 .024251303 .5001628 .020019532 .5053711 L .026367188 .5073242 L .026367188 .5161133 L .036132814 .5161133 L .041992189 .53027346 L .05029297 .5332031 C .06624349 .5332031 .075520839 .52783206 .078125 .51708987 Z "/>
</symbol>
<symbol id="font_2_31">
<path d="M .56689456 .45898438 L .5541992 .43896485 L .55615237 .42333985 L .56103518 .42529298 C .56103518 .4207357 .55875656 .41308595 .5541992 .40234376 L .54833987 .38916017 L .54833987 .33789063 L .53808596 .3149414 L .54003909 .30029298 L .53125 .2548828 L .53515627 .24316406 L .52734377 .20703125 L .5292969 .19091797 L .52197268 .16503906 L .5292969 .14013672 L .5131836 .115234378 L .51708987 .10107422 L .5083008 .083984378 L .5131836 .07421875 L .51708987 .02734375 L .5239258 .012207031 C .51904299 .008951823 .5154622 .0048828127 .5131836 0 L .50390627 .001953125 L .49902345 .05126953 L .4921875 .053222658 C .49153648 .05908203 .4910482 .064941409 .49072267 .07080078 C .49072267 .07698568 .4905599 .08300781 .49023438 .08886719 L .49023438 .10839844 C .49023438 .1155599 .4892578 .12093099 .4873047 .12451172 L .48095704 .13720703 L .46191407 .14013672 L .45117188 .15332031 L .44628907 .14697266 L .43701173 .15820313 L .42089845 .15332031 L .4013672 .16894531 L .39111329 .16699219 L .37109376 .17089844 L .359375 .18310547 L .35205079 .18115235 L .29101563 .22021485 L .2841797 .2290039 L .2631836 .23828125 L .25 .2548828 L .23828125 .26123048 L .22216797 .27734376 L .1772461 .296875 L .14501953 .33789063 L .13134766 .3388672 L .12402344 .35009767 C .11490885 .3540039 .10432943 .36295573 .092285159 .37695313 L .09716797 .37695313 C .09098307 .38248698 .08561198 .39013673 .08105469 .39990235 L .07421875 .40234376 L .072265628 .40234376 C .065104167 .40234376 .060384115 .4000651 .05810547 .3955078 C .056152345 .39095054 .0538737 .3811849 .05126953 .36621095 L .041992189 .3149414 L .05126953 .2841797 L .037109376 .23291016 C .041015626 .21240235 .04296875 .20117188 .04296875 .19921875 L .04296875 .1953125 C .04296875 .18717449 .040852865 .18066406 .036621095 .17578125 C .032389326 .17089844 .030273438 .1673177 .030273438 .16503906 C .030273438 .16341146 .034505208 .16113281 .04296875 .15820313 L .037109376 .13720703 L .037109376 .11230469 L .032226564 .08496094 L .037109376 .07421875 L .032226564 .06689453 C .030924479 .04703776 .026529948 .03141276 .019042969 .020019532 L .012207031 .020019532 C .0040690104 .020019532 0 .026367188 0 .0390625 L 0 .04296875 L .012207031 .08203125 L .0073242189 .09814453 L .014160156 .119140628 L .0073242189 .12695313 L .015136719 .1430664 L .00390625 .15820313 C .005533854 .16601563 .0063476564 .17236328 .0063476564 .1772461 C .0063476564 .18245442 .005533854 .18977864 .00390625 .19921875 L .008300781 .19726563 L .012207031 .20703125 L .00390625 .22216797 L .012207031 .24511719 L .0073242189 .27490235 L .014160156 .3071289 L .008300781 .32910157 L .015136719 .37695313 L .014160156 .4140625 L .019042969 .4482422 L .014160156 .45898438 L .015136719 .5073242 L .026367188 .5102539 C .017578125 .51871749 .013183594 .5263672 .013183594 .5332031 C .013183594 .5371094 .015136719 .5406901 .019042969 .5439453 L .037109376 .54003909 L .041992189 .546875 C .048177083 .5419922 .05126953 .5367839 .05126953 .53125 C .05126953 .52734377 .049479169 .5226237 .045898439 .51708987 L .060058595 .51708987 L .06201172 .49414063 L .07421875 .48388673 L .076171878 .46923829 L .092285159 .45898438 L .09765625 .43847657 C .099609378 .43066407 .103027347 .4248047 .107910159 .42089845 L .14111328 .39697267 L .14111328 .39501954 C .14111328 .3898112 .14453125 .38378907 .15136719 .37695313 L .1743164 .36132813 L .19921875 .33203126 L .27734376 .26708985 L .2861328 .26708985 C .29329429 .26123048 .29785157 .25585938 .2998047 .25097657 C .3017578 .24609375 .3035482 .24348958 .30517579 .24316406 L .33691407 .23291016 L .3623047 .21191406 L .37695313 .20703125 L .40527345 .19091797 L .4321289 .18310547 C .44873048 .1665039 .46272788 .15820313 .4741211 .15820313 L .4892578 .16210938 L .4921875 .16210938 L .49414063 .1899414 L .5083008 .22021485 L .50097659 .22705078 L .50390627 .27392579 L .5151367 .29101563 L .5136719 .3022461 C .5133464 .3055013 .5100911 .31217448 .50390627 .32226563 L .5151367 .36132813 L .5102539 .39794923 L .52001956 .46923829 L .5083008 .4819336 L .52197268 .5229492 L .51708987 .5283203 L .5239258 .5371094 L .52197268 .5439453 L .5371094 .55126956 L .54003909 .5439453 L .5541992 .546875 C .5522461 .54003909 .55126956 .5338542 .55126956 .5283203 C .55126956 .5218099 .55289718 .5159505 .55615237 .5107422 C .55940756 .5058594 .56103518 .5026042 .56103518 .50097659 L .5541992 .4819336 L .56689456 .45898438 Z "/>
</symbol>
<symbol id="font_2_2a">
<path d="M .62402346 .3798828 L .58935549 .32373048 C .58707687 .32080079 .5859375 .31819663 .5859375 .31591798 C .5859375 .31461589 .59033206 .30794273 .5991211 .29589845 L .59228518 .2919922 L .58935549 .25683595 L .57910159 .23095703 L .59228518 .21972656 L .57714846 .21191406 L .57714846 .19970703 L .5859375 .19189453 L .58203127 .17285156 L .5859375 .1508789 L .58203127 .13671875 L .58935549 .12890625 L .58203127 .12109375 L .5859375 .09716797 L .57714846 .072753909 L .58935549 .06201172 L .5859375 .036132814 L .5991211 .013183594 C .59814456 .0043945314 .59488937 0 .58935549 0 C .5867513 0 .5834961 .001953125 .57958987 .005859375 C .5760091 .009765625 .57421877 .012207031 .57421877 .013183594 L .56933596 .044921876 L .5571289 .048828126 L .5571289 .06201172 L .5463867 .08886719 L .5463867 .10498047 L .5410156 .111816409 L .5419922 .123046878 L .53515627 .12597656 L .5390625 .13476563 L .53125 .13476563 C .53222659 .13834636 .5335286 .14013672 .53515627 .14013672 C .5371094 .14013672 .5390625 .13899739 .5410156 .13671875 L .5341797 .15283203 L .5390625 .16699219 L .53515627 .18017578 L .5419922 .18896485 L .53515627 .19189453 C .5390625 .19710286 .5410156 .20279949 .5410156 .20898438 L .53515627 .25195313 L .5419922 .27197267 L .5390625 .27685548 C .5364583 .2775065 .53515627 .28125 .53515627 .28808595 C .5338542 .29329429 .53125 .2981771 .52734377 .30273438 L .5180664 .29589845 C .5128581 .2890625 .50667318 .2841797 .49951173 .28125 C .49267579 .2783203 .48128257 .27669273 .46533204 .2763672 C .4493815 .2763672 .4383138 .27360026 .4321289 .2680664 L .42333985 .25976563 L .38720704 .25195313 L .37109376 .24316406 L .34814454 .24316406 L .33203126 .23486328 L .31103517 .2368164 L .29736329 .22705078 L .2841797 .23095703 L .27539063 .22216797 C .27115885 .22216797 .26627604 .22281902 .2607422 .2241211 C .25553385 .22542317 .25195313 .22607422 .25 .22607422 C .24381511 .22607422 .23811849 .22395833 .23291016 .21972656 C .23030599 .22265625 .22705078 .2241211 .22314453 .2241211 C .22054036 .2241211 .21858724 .22347005 .21728516 .22216797 L .2133789 .22070313 L .20800781 .22216797 L .19238281 .21289063 L .1772461 .22509766 L .16503906 .21875 L .13330078 .2290039 L .12695313 .22509766 L .115234378 .23095703 L .09033203 .23095703 L .078125 .24072266 L .057128908 .25097657 L .019042969 .29003907 L .014160156 .31982423 L .0029296876 .33398438 L .010253906 .35009767 L .001953125 .35986329 L .0073242189 .36572267 L 0 .37695313 L .0029296876 .38183595 L .016113282 .38378907 L .016113282 .3959961 L .025390625 .41210938 L .02734375 .40771485 C .035807294 .4165039 .040039064 .42529298 .040039064 .43408204 L .0390625 .43896485 C .053059896 .44091798 .0616862 .45296226 .064941409 .47509767 L .057128908 .46191407 C .063964847 .47981773 .07096354 .48876954 .078125 .48876954 L .080078128 .48876954 L .076171878 .4819336 C .08203125 .48486329 .08496094 .4892578 .08496094 .4951172 L .08496094 .49804688 L .096191409 .5 L .09423828 .49609376 L .10107422 .49804688 L .103027347 .51171877 L .107910159 .5078125 L .107910159 .5151367 L .119140628 .5151367 L .12695313 .5209961 C .12923177 .5229492 .13264974 .5289714 .13720703 .5390625 L .15820313 .54296877 C .171875 .5569661 .1788737 .56559249 .17919922 .56884768 L .19433594 .57373049 L .19921875 .5830078 L .21826172 .58496096 L .234375 .6010742 C .24511719 .6023763 .2553711 .60595706 .26513673 .6118164 L .2680664 .6166992 L .27001954 .6147461 L .27929688 .6220703 L .27734376 .62402346 C .28320313 .6279297 .28710938 .6298828 .2890625 .6298828 C .2903646 .6298828 .2931315 .62890627 .29736329 .6269531 C .30322267 .6389974 .31022135 .64501956 .31835938 .64501956 L .33935548 .64501956 C .3448893 .64501956 .35253907 .6503906 .3623047 .6611328 L .37109376 .66015627 L .38720704 .6699219 L .39404298 .66796877 C .39860026 .67122396 .40478517 .67366537 .41259767 .67529299 C .42041017 .6769206 .42464195 .6788737 .42529298 .68115237 L .43017579 .68408206 L .4350586 .68310549 L .45703126 .68408206 L .4609375 .69189456 L .47314454 .6899414 L .49414063 .6928711 L .49609376 .69677737 L .51220706 .6899414 L .52734377 .6899414 L .5449219 .6748047 C .55110678 .6738281 .5595703 .6699219 .5703125 .66308596 C .5673828 .648112 .55533859 .6386719 .5341797 .6347656 L .5029297 .6508789 L .49414063 .64697268 L .47705079 .6538086 L .46533204 .64697268 L .4482422 .65185549 L .4189453 .63671877 L .40722657 .6430664 C .38671876 .6378581 .37451173 .63411459 .37060548 .63183596 C .36702476 .6295573 .3642578 .6269531 .3623047 .62402346 C .3528646 .61653646 .34521485 .61279299 .33935548 .61279299 C .3370768 .61279299 .33398438 .61344406 .33007813 .6147461 C .28450523 .5887044 .2578125 .5764974 .25 .578125 L .24707031 .56884768 L .23925781 .56884768 L .2290039 .5551758 L .21533203 .5527344 C .20751953 .54264327 .19661458 .53434249 .18261719 .52783206 C .16894531 .52164718 .1608073 .51741537 .15820313 .5151367 L .13330078 .49072267 L .1171875 .47802735 L .10107422 .4560547 L .06933594 .43017579 L .06933594 .40771485 L .063964847 .40283204 L .04638672 .3569336 L .04638672 .33984376 C .04638672 .33170573 .049479169 .32486979 .055664064 .31933595 C .061848958 .3141276 .064941409 .30826823 .064941409 .3017578 C .064941409 .29915367 .06461588 .29720054 .063964847 .29589845 L .076171878 .28271485 L .103027347 .2680664 L .13134766 .25976563 L .16503906 .2607422 L .20507813 .2529297 L .2109375 .25390626 L .21923828 .25195313 L .27734376 .25683595 C .29427085 .26334635 .3178711 .26708985 .34814454 .2680664 L .3461914 .27197267 L .39404298 .27685548 L .39404298 .27978517 L .4482422 .29296876 C .45507813 .29947917 .4679362 .30371095 .4868164 .30566407 C .5056966 .30794273 .51920577 .3100586 .52734377 .31201173 L .5253906 .31982423 L .53125 .31982423 L .53125 .32373048 L .5463867 .328125 L .5419922 .33789063 L .55322268 .35009767 L .55322268 .36816407 C .5489909 .3701172 .5467122 .37174479 .5463867 .37304688 C .54833987 .3779297 .5493164 .38330079 .5493164 .38916017 C .5493164 .39501954 .54833987 .4008789 .5463867 .40673829 L .57714846 .40771485 L .5859375 .39990235 L .59521487 .39990235 L .61035159 .38183595 L .62402346 .3798828 Z "/>
</symbol>
<symbol id="font_2_3">
<path d="M 0 0 Z "/>
</symbol>
<symbol id="font_2_30">
<path d="M .76171877 .0068359377 C .7600911 .0048828127 .7552083 .0026041668 .7470703 0 L .7260742 .014160156 L .69873049 .047851564 L .69091799 .067871097 C .68896487 .080566409 .68636068 .091308597 .68310549 .100097659 C .67561849 .108561199 .671875 .12679036 .671875 .15478516 C .671875 .15934246 .67252609 .16276042 .6738281 .16503906 C .67545577 .1673177 .6772461 .17822266 .6791992 .1977539 L .6689453 .21875 L .671875 .2290039 L .6689453 .24804688 L .6699219 .27001954 L .66308596 .27685548 L .6689453 .2919922 L .66308596 .30078126 L .6689453 .3100586 L .6621094 .3310547 L .6621094 .36279298 L .6538086 .38183595 C .6534831 .39029948 .6529948 .3976237 .65234377 .4038086 C .65201827 .4099935 .6458333 .4169922 .63378909 .4248047 L .62109377 .4091797 L .6098633 .4038086 L .5761719 .3569336 L .546875 .32177735 L .5371094 .30078126 L .50878909 .26904298 L .4711914 .24072266 L .46777345 .2241211 L .4477539 .21679688 L .44482423 .203125 L .421875 .19189453 L .4140625 .17285156 L .39794923 .16699219 L .375 .12597656 C .3658854 .12597656 .3605143 .11767578 .35888673 .10107422 C .35628257 .10042318 .3540039 .100097659 .35205079 .100097659 C .34944663 .10595703 .34407554 .114583339 .3359375 .12597656 L .33789063 .13916016 L .3310547 .14794922 L .33789063 .15673828 L .33154298 .1640625 C .32991538 .16601563 .3273112 .17301433 .32373048 .1850586 L .3100586 .1977539 C .30745445 .19873047 .3038737 .20247396 .2993164 .20898438 C .29508464 .21582031 .29182945 .22086589 .28955079 .2241211 C .28727214 .2273763 .28434245 .23535156 .28076173 .24804688 L .27001954 .2607422 L .25097657 .29882813 L .23095703 .32177735 L .2241211 .3359375 L .20507813 .3569336 L .1850586 .3881836 C .17366536 .4054362 .16471355 .4140625 .15820313 .4140625 C .15364583 .4140625 .1492513 .4132487 .14501953 .4116211 C .14111328 .4099935 .13883464 .4091797 .1381836 .4091797 L .13671875 .4091797 L .13671875 .39697267 C .13671875 .37483726 .13378906 .3582357 .12792969 .34716798 L .106933597 .30810548 L .111816409 .28271485 L .10498047 .26513673 L .08496094 .1977539 L .07714844 .17578125 L .07373047 .16113281 L .061035158 .12890625 L .044921876 .10107422 L .046875 .07910156 L .029785157 .038085939 C .029785157 .032226564 .032877607 .027832032 .0390625 .024902344 C .026041666 .008951823 .017415366 .0009765625 .013183594 .0009765625 C .011555989 .0009765625 .008951823 .0035807293 .0053710939 .0087890629 C .0017903646 .013671875 0 .01969401 0 .026855469 C 0 .028157553 .0013020834 .032226564 .00390625 .0390625 C .0065104167 .046223958 .0087890629 .0546875 .0107421879 .064453128 C .0126953129 .07421875 .015462239 .081217449 .019042969 .08544922 C .022949219 .09000651 .024902344 .092447917 .024902344 .09277344 L .024902344 .1171875 C .024902344 .13118489 .03157552 .1414388 .044921876 .14794922 L .044921876 .1640625 L .05078125 .18701172 C .050130208 .1883138 .049804689 .19026692 .049804689 .1928711 C .049804689 .1961263 .05159505 .20279949 .05517578 .21289063 C .059733076 .21842449 .06201172 .22444661 .06201172 .23095703 L .06201172 .2529297 L .07080078 .26904298 L .08886719 .32910157 L .083984378 .35595704 L .09277344 .36279298 L .096191409 .375 L .09716797 .41796876 C .10042318 .4358724 .10205078 .44856773 .10205078 .4560547 C .10205078 .46321617 .09765625 .47558595 .08886719 .49316407 L .09716797 .5097656 L .09277344 .51708987 C .095703128 .5183919 .09716797 .5213216 .09716797 .5258789 C .106933597 .5258789 .11311849 .52815756 .115722659 .53271487 L .125 .5317383 L .13671875 .5229492 L .13671875 .51416018 L .14794922 .50683596 L .1508789 .48388673 L .16015625 .47607423 L .1640625 .46191407 L .16894531 .46191407 C .16764324 .4593099 .16699219 .45703126 .16699219 .45507813 C .16699219 .44921876 .17236328 .44580079 .18310547 .44482423 C .18733724 .4428711 .19189453 .43929038 .19677735 .43408204 L .19873047 .42089845 L .20996094 .4091797 L .21679688 .3857422 L .26171876 .33789063 L .27001954 .31103517 L .28515626 .29882813 L .29882813 .25976563 L .3330078 .19873047 C .34016929 .1866862 .34879557 .17610677 .35888673 .16699219 L .36083985 .18017578 L .37890626 .18017578 L .39013673 .20507813 L .4111328 .21972656 C .41471354 .22493489 .4207357 .23160808 .42919923 .2397461 L .42919923 .24804688 C .4363607 .2529297 .4436849 .25732423 .45117188 .26123048 C .45898438 .26546226 .46289063 .2680664 .46289063 .26904298 C .46289063 .269694 .4625651 .27001954 .46191407 .27001954 C .46191407 .2745768 .4638672 .2799479 .46777345 .2861328 L .47802735 .2861328 L .4868164 .29882813 C .48909507 .2955729 .4908854 .2939453 .4921875 .2939453 C .49283854 .2939453 .49316407 .29492188 .49316407 .296875 C .49316407 .29752604 .49235026 .3035482 .49072267 .3149414 C .5053711 .3347982 .5183919 .34472657 .52978518 .34472657 L .52978518 .3569336 C .52978518 .36376954 .53548178 .3688151 .546875 .3720703 L .5527344 .3701172 L .5551758 .37597657 L .5761719 .4091797 L .578125 .41601563 L .58496096 .41601563 C .59472659 .42643229 .6020508 .4388021 .6069336 .453125 C .61116537 .45638023 .61621096 .4580078 .6220703 .4580078 C .62434896 .4580078 .62597659 .45703126 .6269531 .45507813 L .63378909 .46972657 L .6298828 .5 L .62402346 .51416018 C .6311849 .52457687 .63590499 .53515627 .6381836 .54589846 C .64534506 .5449219 .6505534 .5436198 .6538086 .5419922 C .6554362 .53971359 .65983077 .53808596 .6669922 .5371094 L .6689453 .5209961 C .680013 .51155599 .68570968 .50634768 .68603518 .5053711 C .6866862 .50439456 .6870117 .5022786 .6870117 .49902345 L .68603518 .49072267 L .68603518 .4638672 L .69189456 .45507813 L .68603518 .44970704 L .69189456 .4477539 L .6899414 .43701173 L .69384768 .4321289 L .69677737 .4111328 L .70214846 .40673829 L .69189456 .3930664 L .69677737 .39111329 L .69384768 .3701172 L .7011719 .35205079 L .69873049 .32910157 L .7080078 .29296876 C .70963546 .28580729 .711263 .2758789 .7128906 .2631836 C .7089844 .25504557 .7050781 .24902344 .7011719 .24511719 L .70703127 .23291016 C .70963546 .23128255 .7109375 .22965496 .7109375 .22802735 C .7109375 .22639974 .70963546 .22314453 .70703127 .21826172 C .7047526 .21370442 .703125 .20963542 .70214846 .20605469 L .70996096 .19873047 L .70703127 .14404297 L .7167969 .10986328 L .7167969 .06982422 L .7241211 .06201172 C .72802737 .052246095 .73128256 .045572919 .7338867 .041992189 C .7364909 .038411458 .74153646 .032552083 .74902346 .024414063 C .75683596 .016601563 .7610677 .0107421879 .76171877 .0068359377 Z "/>
</symbol>
<symbol id="font_2_33">
<path d="M .53808596 .37597657 L .53222659 .36376954 C .53027346 .35921226 .52734377 .35498048 .5234375 .35107423 L .5083008 .3359375 L .5083008 .32910157 C .5008138 .32747398 .49495445 .32389323 .49072267 .31835938 C .4868164 .31282554 .4832357 .3100586 .47998048 .3100586 C .4741211 .2993164 .4597982 .29134117 .43701173 .2861328 C .4288737 .2747396 .4169922 .26904298 .4013672 .26904298 L .3959961 .26904298 L .3959961 .2631836 L .37597657 .2631836 L .3642578 .25390626 L .35302735 .2529297 C .35302735 .24772136 .3507487 .24511719 .3461914 .24511719 L .33691407 .23779297 L .31396485 .23779297 L .30029298 .22509766 L .25927735 .21679688 L .25390626 .21289063 L .23095703 .21484375 C .23030599 .21256511 .2273763 .20686849 .22216797 .1977539 C .21923828 .20003255 .20963542 .20182292 .19335938 .203125 L .18408203 .1977539 L .16992188 .1928711 C .16308594 .1883138 .15576172 .1850586 .14794922 .18310547 L .14208985 .1640625 L .15234375 .14501953 L .14697266 .12109375 L .15429688 .09375 L .14794922 .08984375 L .15625 .078125 L .15625 .05810547 L .16015625 .047851564 L .16015625 .029785157 L .18310547 .03173828 C .18636067 .028808594 .18798828 .025227866 .18798828 .020996094 C .18798828 .010904948 .18098958 .005859375 .16699219 .005859375 L .16113281 .005859375 L .14501953 0 L .13134766 .024902344 L .11328125 .063964847 L .11328125 .10498047 L .103027347 .125 L .11035156 .1328125 L .10595703 .15283203 L .107910159 .16699219 L .10107422 .17578125 L .060058595 .18310547 L .049316408 .19873047 L .099121097 .203125 L .09423828 .20605469 C .09554037 .20735677 .09749349 .20800781 .100097659 .20800781 C .10367838 .20800781 .10595703 .20735677 .106933597 .20605469 L .106933597 .2290039 L .11328125 .24072266 L .11621094 .30078126 L .12207031 .30810548 L .12011719 .3540039 L .12402344 .37890626 L .12597656 .43408204 L .13232422 .44970704 L .14013672 .45507813 L .1381836 .46972657 C .1381836 .4765625 .14208985 .47998048 .14990235 .47998048 C .1726888 .47998048 .18408203 .47233073 .18408203 .45703126 C .18408203 .45279948 .18131511 .4453125 .17578125 .4345703 C .17057292 .42415367 .16796875 .41634117 .16796875 .4111328 C .16796875 .40527345 .17171224 .39615885 .17919922 .38378907 L .16992188 .375 L .16894531 .34814454 L .15625 .3359375 L .16015625 .3149414 L .15234375 .2919922 L .15625 .27001954 L .15234375 .2529297 L .15429688 .2397461 L .14697266 .2290039 C .14794922 .2179362 .15266927 .21158855 .16113281 .20996094 L .18603516 .22509766 L .20703125 .22509766 C .21647136 .23421224 .22786458 .23876953 .24121094 .23876953 L .24804688 .24511719 C .2513021 .24381511 .25602214 .24316406 .26220704 .24316406 C .27555339 .24316406 .28889976 .24869792 .3022461 .25976563 L .31835938 .2607422 L .3310547 .27197267 L .34423829 .27197267 L .34716798 .27685548 L .39990235 .2919922 C .40934245 .29296876 .4140625 .2952474 .4140625 .29882813 C .41666667 .30143229 .41829429 .30452476 .4189453 .30810548 C .42220054 .30745445 .425944 .3071289 .43017579 .3071289 C .43929038 .3071289 .44498698 .31298829 .44726563 .32470704 C .45768229 .32600913 .4633789 .328125 .46435548 .3310547 C .46533204 .33398438 .4679362 .33626304 .47216798 .33789063 L .47802735 .3330078 L .48291017 .34814454 L .49023438 .3540039 L .49414063 .37597657 C .48860679 .39095054 .48128257 .40429688 .47216798 .41601563 L .46191407 .41796876 L .44433595 .43408204 L .40722657 .44970704 C .38346354 .4676107 .3580729 .4777018 .3310547 .47998048 L .3310547 .47314454 L .31396485 .48486329 L .29101563 .48388673 L .27734376 .49316407 L .26123048 .49316407 L .24707031 .50097659 L .23291016 .50097659 C .22607422 .50097659 .22054036 .50358077 .2163086 .50878909 L .1772461 .51416018 C .17008464 .51188156 .15999349 .508138 .14697266 .5029297 L .12402344 .51708987 L .11035156 .50878909 L .099121097 .5161133 L .078125 .5097656 L .078125 .50683596 L .06933594 .50683596 L .049316408 .49609376 L .03564453 .49414063 C .03141276 .4934896 .024902344 .49039714 .016113282 .48486329 C .0073242189 .495931 .001953125 .5079753 0 .5209961 L .010253906 .53515627 L .010253906 .5419922 C .011881511 .5449219 .017740885 .5467122 .027832032 .5473633 C .0382487 .54833987 .04736328 .55094406 .05517578 .5551758 C .06266276 .55354818 .06738281 .5527344 .06933594 .5527344 C .07259115 .5527344 .075520839 .5541992 .078125 .5571289 L .08691406 .5527344 C .092447917 .554362 .09586588 .5551758 .09716797 .5551758 C .10107422 .5551758 .104003909 .5530599 .10595703 .5488281 L .15429688 .5488281 L .18310547 .54785159 L .2163086 .5419922 C .2179362 .53971359 .22070313 .53776046 .22460938 .5361328 C .22884114 .53483077 .23095703 .5333659 .23095703 .5317383 L .23828125 .5390625 L .2421875 .5390625 C .24934896 .5390625 .2529297 .53776046 .2529297 .53515627 C .2529297 .5335286 .25260417 .53238937 .25195313 .5317383 L .26611329 .5317383 C .28401695 .52652999 .29899089 .5236003 .31103517 .5229492 L .31396485 .51708987 L .3413086 .51708987 L .359375 .5048828 C .36132813 .50358077 .3683268 .5022786 .3803711 .50097659 L .3852539 .49316407 L .39013673 .49316407 C .4073893 .49316407 .4194336 .48649089 .42626954 .47314454 L .43896485 .47998048 L .43896485 .46777345 C .44514976 .46614585 .45361329 .46126304 .46435548 .453125 L .47607423 .453125 L .48535157 .43896485 L .51708987 .41796876 L .51708987 .40673829 L .53808596 .37597657 Z "/>
</symbol>
<symbol id="font_2_24">
<path d="M .69189456 .2919922 C .69189456 .28710938 .6896159 .2836914 .6850586 .28173829 L .6689453 .28710938 L .6508789 .27294923 L .6298828 .2758789 C .62141928 .27001954 .6121419 .26708985 .6020508 .26708985 C .5942383 .26708985 .5891927 .26529948 .58691409 .26171876 C .57877609 .26529948 .5711263 .26708985 .56396487 .26708985 C .5571289 .26708985 .5527344 .26464845 .55078127 .25976563 C .5520833 .2565104 .5545247 .25358073 .55810549 .25097657 L .5551758 .24072266 L .55810549 .20703125 L .5708008 .18798828 L .5732422 .16992188 L .59521487 .13769531 L .5917969 .123046878 L .6069336 .10888672 L .6298828 .06982422 C .64192709 .055826826 .6489258 .045898439 .6508789 .040039064 L .6689453 .030761719 L .67578127 .015136719 L .68310549 .009765625 L .6699219 0 L .6538086 .0126953129 L .64404299 .0126953129 L .6308594 .022949219 L .62109377 .022949219 L .6118164 .040039064 L .6020508 .044921876 C .5942383 .060546876 .585612 .072916667 .5761719 .08203125 L .5761719 .091796878 L .56689456 .100097659 L .56591799 .115722659 L .55078127 .13183594 L .52978518 .1821289 L .5229492 .19091797 L .51953127 .21582031 C .51920577 .21842449 .51497396 .22607422 .50683596 .23876953 L .50683596 .25976563 L .4951172 .25976563 L .4819336 .25097657 L .46191407 .2548828 L .4482422 .24609375 L .4428711 .25097657 L .4321289 .24414063 L .42919923 .25097657 C .42757163 .25097657 .42415367 .25 .4189453 .24804688 C .4140625 .24609375 .4086914 .24511719 .40283204 .24511719 L .39013673 .24609375 L .37304688 .24609375 L .35595704 .23486328 L .33789063 .23876953 L .31298829 .2368164 L .31298829 .2319336 L .30419923 .2368164 L .2919922 .22998047 L .28320313 .2368164 L .26708985 .2368164 L .25097657 .22998047 L .23779297 .24414063 L .23095703 .23876953 L .21679688 .24414063 C .20572917 .23925781 .19042969 .22216797 .17089844 .1928711 L .15478516 .18896485 C .12809246 .14794922 .11376953 .12727864 .111816409 .12695313 L .103027347 .12207031 L .07519531 .0859375 L .06982422 .0859375 L .045898439 .046875 L .020019532 .030761719 L 0 .036132814 L .00390625 .044921876 L .00390625 .05908203 L .011230469 .067871097 L .0078125 .07470703 L .025878907 .07714844 L .038085939 .083984378 C .048828126 .088541667 .0555013 .096842449 .05810547 .10888672 C .071777347 .112467449 .0797526 .12011719 .08203125 .13183594 C .09798177 .14095052 .10872396 .15592449 .11425781 .17675781 L .12792969 .1821289 L .16015625 .2319336 L .16015625 .24609375 C .15559896 .24967449 .15218099 .25455729 .14990235 .2607422 L .16894531 .27783204 L .16894531 .28515626 L .19189453 .28271485 L .20507813 .29101563 L .20800781 .28710938 L .2211914 .3046875 C .21826172 .30533854 .21679688 .30680339 .21679688 .30908204 C .21679688 .31070964 .22151692 .31461589 .23095703 .32080079 L .23486328 .3149414 C .23551433 .32307945 .2389323 .33268229 .24511719 .34375 L .2421875 .34570313 L .25390626 .3466797 L .2578125 .35986329 C .26595054 .36083985 .27001954 .3642578 .27001954 .3701172 L .27001954 .38183595 C .28597007 .3955078 .2939453 .40820313 .2939453 .41992188 L .2939453 .421875 L .3071289 .42382813 L .3100586 .43798829 L .31689454 .4399414 L .32714845 .4609375 L .33398438 .4560547 L .32910157 .46679688 C .3388672 .46777345 .34423829 .4741211 .34521485 .48583985 L .35205079 .4819336 L .35205079 .5019531 L .35888673 .5019531 L .35888673 .5161133 C .3601888 .51741537 .36393229 .5206706 .3701172 .5258789 C .3763021 .5314128 .38020835 .538737 .38183595 .54785159 L .3930664 .55908206 L .38623048 .57470706 C .39534507 .5867513 .40397135 .59277346 .41210938 .59277346 L .4140625 .59277346 L .41992188 .6020508 L .4267578 .5917969 C .4283854 .58984377 .4313151 .58772787 .43554688 .5854492 L .45214845 .57714846 L .45410157 .5517578 C .45865885 .54785159 .46289063 .5411784 .46679688 .5317383 L .47509767 .5288086 L .47705079 .50683596 L .48486329 .47705079 L .49804688 .45410157 L .50683596 .421875 L .50878909 .4008789 L .5229492 .38183595 L .51904299 .37402345 L .52978518 .3618164 L .52978518 .3466797 L .53222659 .3330078 C .53222659 .33040367 .5307617 .3269857 .52783206 .3227539 C .53792318 .29899089 .5496419 .28710938 .5629883 .28710938 L .58203127 .29101563 L .60498049 .29101563 C .6121419 .2890625 .61816409 .28808595 .6230469 .28808595 C .63151046 .28808595 .6380208 .29003907 .6425781 .2939453 C .64746096 .29785157 .6505534 .2998047 .65185549 .2998047 C .6538086 .2998047 .65983077 .296875 .6699219 .29101563 L .69189456 .2919922 M .5019531 .31689454 C .49772135 .32796226 .49235026 .33528648 .48583985 .3388672 L .49121095 .35302735 L .47802735 .35986329 L .4741211 .39794923 L .46191407 .4169922 L .45996095 .43310548 L .453125 .44677735 L .453125 .45214845 L .4501953 .45214845 L .4482422 .4736328 C .4482422 .47591148 .4464518 .4794922 .4428711 .484375 L .43603517 .4951172 C .43473307 .4970703 .43196617 .49951173 .42773438 .5024414 C .42382813 .5053711 .41764323 .50878909 .4091797 .5126953 L .39794923 .50683596 L .39111329 .4951172 L .3671875 .4609375 L .36132813 .44970704 C .35970054 .4464518 .35188804 .43782554 .33789063 .42382813 L .33398438 .40771485 L .31298829 .39697267 C .30810548 .37158204 .2981771 .3569336 .28320313 .35302735 L .27392579 .3227539 L .25390626 .3149414 L .25390626 .3046875 L .25097657 .2919922 C .2626953 .28841148 .2709961 .2849935 .2758789 .28173829 L .28808595 .28271485 L .30810548 .27783204 C .31201173 .27652995 .3149414 .2758789 .31689454 .2758789 C .31982423 .2758789 .32454429 .27652995 .3310547 .27783204 C .33170573 .27848307 .3330078 .2788086 .33496095 .2788086 C .3359375 .2788086 .3383789 .27815757 .34228517 .27685548 C .34651695 .27555339 .3504232 .27490235 .3540039 .27490235 L .3671875 .27783204 L .40625 .28076173 L .43798829 .28515626 C .4584961 .28222657 .47151695 .28076173 .47705079 .28076173 C .49235026 .28076173 .5 .2841797 .5 .29101563 C .5 .2952474 .4970703 .300944 .49121095 .30810548 L .5019531 .31689454 Z "/>
</symbol>
<symbol id="font_2_3c">
<path d="M .6230469 .86279299 L .6152344 .85595706 L .6152344 .83984377 C .6041667 .8378906 .5963542 .8338216 .5917969 .8276367 C .58723959 .82145187 .58235678 .8178711 .57714846 .81689456 C .5761719 .8097331 .5732422 .80615237 .5683594 .80615237 L .54345706 .7841797 L .5332031 .76708987 L .52441409 .76708987 C .5179036 .7550456 .51253256 .7473958 .5083008 .7441406 C .4975586 .7395833 .4908854 .73583987 .48828126 .73291018 L .46728517 .7080078 L .45214845 .69677737 C .4469401 .6928711 .43961589 .68929037 .43017579 .68603518 L .42041017 .6669922 L .40673829 .6586914 C .4025065 .6560872 .39534507 .64957687 .3852539 .63916018 L .375 .61279299 L .34033204 .5698242 C .33024089 .5551758 .32259117 .5415039 .3173828 .5288086 L .3232422 .5180664 L .3173828 .5019531 L .32226563 .48291017 L .3154297 .4609375 L .31933595 .4350586 L .32617188 .4272461 C .31835938 .41617839 .31445313 .4051107 .31445313 .39404298 C .31445313 .38460288 .31298829 .37727867 .3100586 .3720703 C .31266276 .35384117 .3136393 .34277345 .31298829 .3388672 L .30615235 .2919922 L .3071289 .26904298 L .30322267 .25878907 L .3100586 .22314453 L .30126954 .20800781 L .3071289 .18896485 L .30126954 .17919922 C .30940757 .16552735 .3125 .15592449 .31054688 .15039063 C .30566407 .13541667 .30322267 .12695313 .30322267 .125 L .30908204 .09814453 L .2993164 .07324219 L .3100586 .057128908 L .3071289 .020996094 C .30615235 .009277344 .30192057 .0022786458 .2944336 0 L .28808595 .034179689 L .28027345 .063964847 L .2783203 .091796878 L .2709961 .096191409 L .2763672 .107910159 L .2709961 .125 L .2763672 .15625 L .26904298 .18896485 L .27197267 .21679688 L .2709961 .22314453 L .27197267 .24511719 L .2680664 .2919922 L .27197267 .31396485 L .26904298 .33984376 L .2763672 .38623048 L .26708985 .40283204 L .2709961 .42285157 C .2709961 .4388021 .26871745 .45214845 .26416017 .46289063 C .2693685 .47265626 .27197267 .48128257 .27197267 .48876954 C .27197267 .49397788 .26708985 .5139974 .25732423 .5488281 C .24886067 .555013 .24186199 .56315109 .23632813 .5732422 C .23144531 .57389327 .22672527 .57682296 .22216797 .58203127 L .19238281 .61816409 L .1772461 .6269531 L .1640625 .6508789 L .12597656 .68896487 L .119140628 .703125 L .100097659 .7270508 L .076171878 .7470703 L .076171878 .7578125 L .064453128 .76660159 C .059570314 .7701823 .056152345 .7739258 .05419922 .77783206 L .045410158 .7939453 C .04378255 .7972005 .038411458 .80061849 .029296875 .8041992 C .009765625 .8146159 0 .83186849 0 .85595706 L .0009765625 .8652344 L .010253906 .8652344 C .010904948 .8697917 .013834636 .8720703 .019042969 .8720703 C .024902344 .8720703 .033365888 .8704427 .044433595 .8671875 L .049316408 .8510742 L .068359378 .84277346 L .083984378 .81689456 L .10644531 .80078127 L .107421878 .77978518 C .107421878 .77457687 .11230469 .7713216 .12207031 .77001956 L .13232422 .75390627 L .14697266 .7421875 L .1953125 .6699219 L .19335938 .6621094 L .20410156 .6582031 L .21826172 .63916018 L .2680664 .5908203 C .27164714 .5878906 .27539063 .5833333 .27929688 .57714846 C .28352867 .57096359 .28645835 .5678711 .28808595 .5678711 C .28841148 .5678711 .29134117 .570638 .296875 .5761719 C .30240885 .58203127 .3095703 .5929362 .31835938 .6088867 C .3203125 .62093099 .32259117 .6269531 .3251953 .6269531 L .33203126 .6269531 C .33496095 .6269531 .33642579 .62890627 .33642579 .6328125 L .33642579 .63623049 C .33642579 .6401367 .34098307 .6456706 .35009767 .65283206 L .3491211 .65625 C .3491211 .6621094 .3564453 .66829428 .37109376 .6748047 L .3803711 .68896487 L .3803711 .69091799 C .3803711 .6980794 .38802085 .70214846 .4033203 .703125 C .40852867 .7057292 .4111328 .7086589 .4111328 .71191409 C .4111328 .7141927 .41080729 .7158203 .41015626 .7167969 C .4205729 .71875 .42773438 .7220052 .43164063 .7265625 L .4482422 .74609377 C .4547526 .75878909 .4622396 .7688802 .47070313 .7763672 C .4794922 .7841797 .48470054 .78808596 .48632813 .78808596 L .48828126 .78808596 L .4970703 .80029299 C .49967448 .8041992 .5056966 .80940756 .5151367 .81591799 L .51904299 .8310547 C .5209961 .8297526 .52408859 .82910159 .5283203 .82910159 C .5341797 .82910159 .5371094 .83414718 .5371094 .8442383 L .5371094 .84521487 C .5371094 .84781906 .54215499 .85009768 .5522461 .8520508 L .5493164 .85791018 L .56103518 .86279299 L .5722656 .86279299 L .578125 .8798828 L .6020508 .8769531 L .609375 .8798828 L .6152344 .8671875 L .6230469 .86279299 Z "/>
</symbol>
<use xlink:href="#font_2_26" transform="matrix(124.37721,0,0,-124.37721,584.1732,968.97689)" fill="#231f20"/>
<use xlink:href="#font_2_2f" transform="matrix(124.37721,0,0,-124.37721,663.98507,967.0942)" fill="#231f20"/>
<use xlink:href="#font_2_32" transform="matrix(124.37721,0,0,-124.37721,736.16226,968.06588)" fill="#231f20"/>
<use xlink:href="#font_2_37" transform="matrix(124.37721,0,0,-124.37721,817.9947,970.3129)" fill="#231f20"/>
<use xlink:href="#font_2_2b" transform="matrix(124.37721,0,0,-124.37721,900.18618,974.68557)" fill="#231f20"/>
<use xlink:href="#font_2_2c" transform="matrix(124.37721,0,0,-124.37721,992.08639,968.8554)" fill="#231f20"/>
<use xlink:href="#font_2_31" transform="matrix(124.37721,0,0,-124.37721,1026.9203,971.7097)" fill="#231f20"/>
<use xlink:href="#font_2_2a" transform="matrix(124.37721,0,0,-124.37721,1113.3611,990.71859)" fill="#231f20"/>
<use xlink:href="#font_2_3" transform="matrix(124.37721,0,0,-124.37721,1197.5829,967.0942)" fill="#231f20"/>
<use xlink:href="#font_2_3" transform="matrix(124.37721,0,0,-124.37721,1229.2991,967.0942)" fill="#231f20"/>
<use xlink:href="#font_2_26" transform="matrix(124.37721,0,0,-124.37721,1267.9993,968.97689)" fill="#231f20"/>
<use xlink:href="#font_2_32" transform="matrix(124.37721,0,0,-124.37721,1343.6207,968.06588)" fill="#231f20"/>
<use xlink:href="#font_2_30" transform="matrix(124.37721,0,0,-124.37721,1428.3074,969.94857)" fill="#231f20"/>
<use xlink:href="#font_2_33" transform="matrix(124.37721,0,0,-124.37721,1530.15,969.94857)" fill="#231f20"/>
<use xlink:href="#font_2_24" transform="matrix(124.37721,0,0,-124.37721,1595.3388,972.68148)" fill="#231f20"/>
<use xlink:href="#font_2_31" transform="matrix(124.37721,0,0,-124.37721,1699.0548,971.7097)" fill="#231f20"/>
<use xlink:href="#font_2_3c" transform="matrix(124.37721,0,0,-124.37721,1783.2484,1008.51278)" fill="#231f20"/>
<clipPath id="cp3">
<path transform="matrix(2.7777777,0,0,-2.7777777,0,1653.5444)" d="M 0 595.276 L 841.89 595.276 L 841.89 0 L 0 0 Z "/>
</clipPath>
<g clip-path="url(#cp3)">
<path transform="matrix(2.7777777,0,0,-2.7777777,1096.2511,576.8553)" d="M 0 0 C -1.654 .554 -3.385 .913 -5.114 1.129 C -5.795 .481 -9.682 -3.005 -15.242 -3.712 C -21.209 -4.472 -38.723 -3.742 -44.711 4.894 C -45.145 5.105 -44.825 5.934 -44.571 5.807 C -42.272 6.436 -33.786 8.47 -24.111 7.187 C -16.103 6.125 -9.885 3.605 -6.915 2.211 C -4.893 2.067 -2.829 1.744 -.835 1.181 C -3.7 5.266 -5.85 8.701 -7.196 11.86 C -7.964 12.154 -9.867 12.917 -11.965 14.011 C -15.236 14.475 -22.361 15.5 -25.087 15.996 C -28.675 16.65 -33.697 23.111 -36.501 27.092 C -38.947 30.565 -45.562 32.698 -47.213 33.188 C -47.326 33.221 -47.331 33.378 -47.219 33.413 C -45.454 33.961 -37.88 36.223 -34.605 35.705 C -30.946 35.125 -17.058 25.441 -10.589 14.311 C -9.439 13.748 -8.401 13.3 -7.663 12.997 C -7.686 13.072 -7.708 13.147 -7.73 13.222 C -7.932 13.784 -8.115 14.341 -8.262 14.89 C -8.269 14.918 -8.263 14.945 -8.267 14.973 C -8.896 16.958 -9.526 18.717 -10.185 20.338 C -11.141 21.269 -12.475 22.346 -14.252 23.303 C -18.358 25.516 -32.428 44.005 -25.256 55.125 C -25.205 55.791 -24.048 50.615 -20.05 47.969 C -17.178 46.069 -4.903 33.857 -7.075 22.322 C -7.227 21.513 -7.808 19.556 -8.098 18.596 C -7.552 17.09 -7.016 15.455 -6.476 13.64 C -5.468 10.843 -3.733 7.814 -1.354 4.271 C -.604 4.822 .068 5.443 .667 6.129 C 1.188 7.598 3.343 13.802 4.145 18.204 C 5.061 23.227 6.238 30.991 10.154 35.557 C 13.466 39.417 30.513 42.515 19.614 32.291 C 14.296 27.302 9.756 18.071 9.756 18.071 C 7.434 12.922 4.853 9.714 3.015 7.875 C 2.009 6.202 .756 4.721 -.86 3.54 C -.192 2.562 .52 1.545 1.278 .483 C 1.285 .48 1.291 .479 1.298 .476 L 1.292 .462 C 2.789 -1.633 4.455 -3.899 6.286 -6.387 C 7.825 -8.479 9.479 -10.727 11.241 -13.157 C 15.2 -18.619 19.422 -22.886 23.327 -26.17 C 22.883 -24.777 22.306 -22.729 21.945 -20.551 C 20.557 -17.153 17.465 -7.643 21.495 2.081 C 26.295 13.664 28.118 11.871 28.56 18.779 C 28.588 19.221 29.111 19.451 29.444 19.158 C 31.713 17.16 37.556 10.713 33.174 .25 C 28.708 -10.414 24.291 -18.667 22.946 -21.116 C 23.467 -23.838 24.28 -26.28 24.614 -27.227 C 32.149 -33.265 38.199 -35.554 38.293 -35.589 C 38.636 -35.715 38.812 -36.095 38.686 -36.437 C 38.604 -36.659 38.415 -36.812 38.199 -36.856 C 38.083 -36.88 37.958 -36.874 37.838 -36.83 C 37.683 -36.772 33.981 -35.396 28.695 -31.878 C 28.172 -31.529 27.616 -31.145 27.043 -30.737 C 26.355 -31.136 24.708 -32.025 22.464 -32.805 C 20.623 -36.127 15.221 -36.833 7.518 -36.214 C -.638 -35.559 -4.886 -35.016 -8.99 -35.491 C -21.331 -36.917 -21.842 -30.983 -21.842 -30.983 C -17.992 -29.549 3.149 -26.165 7.781 -29.233 C 11.456 -31.667 18.72 -32.103 21.568 -32.179 C 23.726 -31.485 25.392 -30.648 26.258 -30.17 C 21.692 -26.825 15.873 -21.683 10.47 -14.333 C 9.768 -15.038 8.273 -16.177 5.53 -16.874 C 4.396 -17.426 3.118 -18.065 2.5 -18.43 C -6.379 -23.683 -14.464 -17.023 -24.904 -17.998 C -34.059 -18.853 -36.841 -10.752 -36.841 -10.752 L -36.841 -10.751 C -36.841 -10.751 -36.512 -10.445 -36.156 -10.477 C -29.981 -8.045 -18.778 -7.613 -10.352 -12.523 C -4.023 -16.209 2.6 -16.293 5.776 -16.059 C 8.197 -15.368 9.491 -14.345 10.06 -13.779 C 8.342 -11.412 6.726 -9.215 5.221 -7.17 C 3.299 -4.558 1.559 -2.189 0 0 " fill="#1fbcee"/>
<path transform="matrix(2.7777777,0,0,-2.7777777,1032.6986,510.66859)" d="M 0 0 C 8.204 -20.556 24.07 -37.755 43.766 -47.823 C 49.305 -50.654 55.136 -52.907 61.14 -54.534 C 62.471 -54.895 62.973 -52.811 61.64 -52.449 C 40.835 -46.809 22.416 -33.306 10.478 -15.389 C 7.131 -10.367 4.297 -5.011 2.06 .595 C 1.552 1.866 -.512 1.283 0 0 " fill="#060508"/>
<path transform="matrix(2.7777777,0,0,-2.7777777,1038.3803,508.18107)" d="M 0 0 C -4.145 3.198 -6.5 8.838 -8.08 13.69 C -9.676 18.594 -10.413 23.713 -10.309 28.867 C -10.839 28.545 -11.369 28.224 -11.899 27.902 C -9.427 26.398 -7.896 23.44 -6.476 21.007 C -4.975 18.434 -3.648 15.756 -2.535 12.992 C -.566 8.107 .969 2.674 -.811 -2.499 C -1.259 -3.801 .828 -4.295 1.274 -2.998 C 3.217 2.647 1.541 8.69 -.645 14.003 C -1.847 16.93 -3.249 19.771 -4.862 22.493 C -6.449 25.17 -8.138 28.121 -10.863 29.779 C -11.589 30.221 -12.438 29.589 -12.453 28.814 C -12.563 23.357 -11.747 17.885 -10.012 12.708 C -8.316 7.649 -5.829 1.808 -1.498 -1.535 C -.417 -2.369 1.091 -.842 0 0 " fill="#060508"/>
<path transform="matrix(2.7777777,0,0,-2.7777777,1049.985,586.17196)" d="M 0 0 C .558 .279 1.258 .168 1.859 .117 C 2.599 .053 3.336 -.052 4.068 -.183 C 5.456 -.431 6.825 -.786 8.159 -1.241 C 10.886 -2.171 13.477 -3.571 15.759 -5.329 C 16.841 -6.162 18.349 -4.634 17.257 -3.794 C 14.565 -1.721 11.593 -.118 8.362 .944 C 6.774 1.466 5.14 1.846 3.484 2.074 C 1.953 2.285 .335 2.558 -1.098 1.842 C -2.335 1.224 -1.228 -.613 0 0 " fill="#060508"/>
<path transform="matrix(2.7777777,0,0,-2.7777777,1048.8864,581.68917)" d="M 0 0 C -2.048 -1.124 -4.505 -1.617 -6.783 -2.038 C -9.435 -2.527 -12.152 -2.643 -14.844 -2.519 C -20.919 -2.238 -26.876 -.564 -32.379 1.98 C -32.369 1.36 -32.358 .741 -32.348 .121 C -30.131 1.682 -27.199 1.976 -24.574 2.316 C -21.812 2.674 -19.026 2.847 -16.241 2.837 C -10.673 2.815 -4.491 2.253 -.2 -1.688 C .816 -2.621 2.315 -1.087 1.298 -.153 C -3.328 4.094 -9.781 4.908 -15.817 4.977 C -18.92 5.012 -22.026 4.817 -25.101 4.396 C -27.947 4.007 -31.039 3.658 -33.446 1.962 C -34.057 1.532 -34.209 .47 -33.415 .103 C -27.55 -2.608 -21.264 -4.361 -14.791 -4.662 C -11.971 -4.793 -9.146 -4.632 -6.368 -4.131 C -3.837 -3.674 -1.174 -3.088 1.098 -1.842 C 2.312 -1.176 1.208 .663 0 0 " fill="#060508"/>
<path transform="matrix(2.7777777,0,0,-2.7777777,1121.3678,640.93)" d="M 0 0 C .305 .249 .874 .262 1.246 .307 C 1.833 .377 2.423 .424 3.014 .446 C 4.101 .487 5.197 .454 6.277 .322 C 8.532 .046 10.735 -.584 12.787 -1.557 C 14.028 -2.145 15.072 -.272 13.822 .32 C 11.367 1.484 8.763 2.214 6.06 2.487 C 4.772 2.617 3.477 2.641 2.186 2.546 C .87 2.45 -.479 2.36 -1.535 1.498 C -1.983 1.131 -1.897 .353 -1.516 -.019 C -1.062 -.461 -.45 -.368 0 0 " fill="#060508"/>
<path transform="matrix(2.7777777,0,0,-2.7777777,1118.7161,636.93)" d="M 0 0 C -1.401 -1.219 -3.282 -2.028 -4.988 -2.716 C -6.987 -3.522 -9.099 -4.068 -11.227 -4.401 C -15.839 -5.122 -20.559 -4.812 -25.102 -3.801 C -24.929 -4.398 -24.756 -4.995 -24.584 -5.592 C -23.089 -3.965 -20.728 -3.255 -18.695 -2.548 C -16.56 -1.805 -14.375 -1.206 -12.159 -.759 C -8.065 .066 -3.504 .513 .25 -1.687 C 1.441 -2.386 2.476 -.508 1.286 .19 C -2.869 2.625 -7.835 2.253 -12.384 1.374 C -14.85 .896 -17.28 .231 -19.646 -.613 C -21.922 -1.427 -24.442 -2.27 -26.119 -4.094 C -26.659 -4.683 -26.421 -5.704 -25.601 -5.886 C -20.675 -6.983 -15.59 -7.267 -10.599 -6.457 C -8.337 -6.089 -6.114 -5.499 -3.999 -4.613 C -2.058 -3.8 -.066 -2.89 1.535 -1.498 C 2.578 -.591 1.035 .9 0 0 " fill="#060508"/>
<path transform="matrix(2.7777777,0,0,-2.7777777,1076.3075,571.9683)" d="M 0 0 C -.07 5.058 .986 10.084 3.102 14.68 C 3.675 15.926 1.803 16.972 1.225 15.716 C -1.052 10.77 -2.219 5.395 -2.144 -.053 C -2.125 -1.433 .019 -1.383 0 0 " fill="#060508"/>
<path transform="matrix(2.7777777,0,0,-2.7777777,1084.455,533.55416)" d="M 0 0 C 1.887 1.585 3.33 3.782 4.622 5.855 C 6.121 8.26 7.286 10.847 8.211 13.523 C 10.332 19.646 10.985 26.217 10.581 32.664 C 10.533 33.428 9.659 34.023 8.96 33.558 C 6.374 31.838 4.841 28.948 3.389 26.286 C 1.75 23.282 .365 20.144 -.781 16.92 C -2.639 11.69 -3.904 5.805 -1.797 .451 C -1.296 -.824 .768 -.239 .262 1.046 C -1.654 5.915 -.515 11.164 1.135 15.938 C 2.135 18.829 3.363 21.639 4.784 24.348 C 6.127 26.91 7.579 30.068 10.058 31.717 C 9.518 32.015 8.978 32.313 8.437 32.611 C 8.821 26.481 8.223 20.308 6.276 14.463 C 5.432 11.931 4.331 9.481 2.938 7.203 C 1.693 5.167 .308 3.046 -1.535 1.498 C -2.592 .609 -1.047 -.88 0 0 " fill="#060508"/>
<path transform="matrix(2.7777777,0,0,-2.7777777,1144.3182,631.1914)" d="M 0 0 C -1.016 4.961 -.872 10.104 .351 15.014 C .684 16.351 -1.4 16.855 -1.734 15.513 C -3.049 10.234 -3.15 4.732 -2.06 -.595 C -1.783 -1.949 .275 -1.345 0 0 " fill="#060508"/>
<path transform="matrix(2.7777777,0,0,-2.7777777,1144.8567,592.5641)" d="M 0 0 C 1.633 2.001 2.679 4.462 3.599 6.855 C 4.651 9.592 5.338 12.444 5.723 15.351 C 6.562 21.69 5.991 28.112 4.41 34.292 C 4.206 35.093 3.171 35.292 2.613 34.743 C .325 32.491 -.645 29.154 -1.586 26.167 C -2.602 22.949 -3.359 19.649 -3.847 16.309 C -4.642 10.872 -4.721 5.01 -1.688 .2 C -.952 -.968 .89 .129 .153 1.298 C -2.664 5.765 -2.463 11.267 -1.688 16.298 C -1.25 19.146 -.615 21.962 .209 24.723 C 1.072 27.617 1.938 31.071 4.148 33.246 L 2.351 33.697 C 3.835 27.895 4.423 21.809 3.638 15.851 C 3.294 13.25 2.723 10.663 1.828 8.194 C 1.001 5.913 .015 3.396 -1.535 1.498 C -2.402 .436 -.873 -1.069 0 0 " fill="#060508"/>
</g>
</g>
</g>
</svg>
